<svg width="133" height="30" viewBox="0 0 133 30" fill="none" xmlns="http://www.w3.org/2000/svg">
<path d="M41.591 20.252H46.056V22H39.425V8.795H41.591V20.252ZM57.4624 16.509C57.4624 16.9017 57.4371 17.2563 57.3864 17.573H49.3874C49.4507 18.409 49.761 19.0803 50.3184 19.587C50.8757 20.0937 51.5597 20.347 52.3704 20.347C53.5357 20.347 54.359 19.8593 54.8404 18.884H57.1774C56.8607 19.8467 56.2844 20.6383 55.4484 21.259C54.625 21.867 53.599 22.171 52.3704 22.171C51.3697 22.171 50.4704 21.9493 49.6724 21.506C48.887 21.05 48.2664 20.4167 47.8104 19.606C47.367 18.7827 47.1454 17.8327 47.1454 16.756C47.1454 15.6793 47.3607 14.7357 47.7914 13.925C48.2347 13.1017 48.849 12.4683 49.6344 12.025C50.4324 11.5817 51.3444 11.36 52.3704 11.36C53.3584 11.36 54.2387 11.5753 55.0114 12.006C55.7841 12.4367 56.3857 13.0447 56.8164 13.83C57.2471 14.6027 57.4624 15.4957 57.4624 16.509ZM55.2014 15.825C55.1887 15.027 54.9037 14.3873 54.3464 13.906C53.789 13.4247 53.0987 13.184 52.2754 13.184C51.528 13.184 50.8884 13.4247 50.3564 13.906C49.8244 14.3747 49.5077 15.0143 49.4064 15.825H55.2014ZM60.6959 10.144C60.3033 10.144 59.9739 10.011 59.7079 9.745C59.4419 9.479 59.3089 9.14967 59.3089 8.757C59.3089 8.36433 59.4419 8.035 59.7079 7.769C59.9739 7.503 60.3033 7.37 60.6959 7.37C61.0759 7.37 61.3989 7.503 61.6649 7.769C61.9309 8.035 62.0639 8.36433 62.0639 8.757C62.0639 9.14967 61.9309 9.479 61.6649 9.745C61.3989 10.011 61.0759 10.144 60.6959 10.144ZM61.7599 11.531V22H59.5939V11.531H61.7599ZM67.1307 13.298V19.093C67.1307 19.4857 67.2194 19.7707 67.3967 19.948C67.5867 20.1127 67.9034 20.195 68.3467 20.195H69.6767V22H67.9667C66.9914 22 66.244 21.772 65.7247 21.316C65.2054 20.86 64.9457 20.119 64.9457 19.093V13.298H63.7107V11.531H64.9457V8.928H67.1307V11.531H69.6767V13.298H67.1307ZM81.154 11.531V22H78.988V20.765C78.646 21.1957 78.1964 21.5377 77.639 21.791C77.0944 22.0317 76.5117 22.152 75.891 22.152C75.0677 22.152 74.3267 21.981 73.668 21.639C73.022 21.297 72.509 20.7903 72.129 20.119C71.7617 19.4477 71.578 18.637 71.578 17.687V11.531H73.725V17.364C73.725 18.3013 73.9594 19.0233 74.428 19.53C74.8967 20.024 75.5364 20.271 76.347 20.271C77.1577 20.271 77.7974 20.024 78.266 19.53C78.7474 19.0233 78.988 18.3013 78.988 17.364V11.531H81.154ZM86.1779 13.051C86.4946 12.519 86.9126 12.1073 87.4319 11.816C87.9639 11.512 88.5909 11.36 89.3129 11.36V13.602H88.7619C87.9132 13.602 87.2672 13.8173 86.8239 14.248C86.3932 14.6787 86.1779 15.426 86.1779 16.49V22H84.0119V11.531H86.1779V13.051ZM92.4059 10.144C92.0132 10.144 91.6839 10.011 91.4179 9.745C91.1519 9.479 91.0189 9.14967 91.0189 8.757C91.0189 8.36433 91.1519 8.035 91.4179 7.769C91.6839 7.503 92.0132 7.37 92.4059 7.37C92.7859 7.37 93.1089 7.503 93.3749 7.769C93.6409 8.035 93.7739 8.36433 93.7739 8.757C93.7739 9.14967 93.6409 9.479 93.3749 9.745C93.1089 10.011 92.7859 10.144 92.4059 10.144ZM93.4699 11.531V22H91.3039V11.531H93.4699ZM101.596 11.36C102.419 11.36 103.154 11.531 103.8 11.873C104.458 12.215 104.971 12.7217 105.339 13.393C105.706 14.0643 105.89 14.875 105.89 15.825V22H103.743V16.148C103.743 15.2107 103.508 14.495 103.04 14.001C102.571 13.4943 101.931 13.241 101.121 13.241C100.31 13.241 99.664 13.4943 99.1827 14.001C98.714 14.495 98.4797 15.2107 98.4797 16.148V22H96.3137V11.531H98.4797V12.728C98.8343 12.2973 99.284 11.9617 99.8287 11.721C100.386 11.4803 100.975 11.36 101.596 11.36ZM114.068 11.36C114.866 11.36 115.575 11.531 116.196 11.873C116.829 12.215 117.323 12.7217 117.678 13.393C118.045 14.0643 118.229 14.875 118.229 15.825V22H116.082V16.148C116.082 15.2107 115.847 14.495 115.379 14.001C114.91 13.4943 114.27 13.241 113.46 13.241C112.649 13.241 112.003 13.4943 111.522 14.001C111.053 14.495 110.819 15.2107 110.819 16.148V22H108.653V7.94H110.819V12.747C111.186 12.3037 111.648 11.9617 112.206 11.721C112.776 11.4803 113.396 11.36 114.068 11.36ZM120.269 16.718C120.269 15.6667 120.485 14.7357 120.915 13.925C121.359 13.1143 121.954 12.4873 122.701 12.044C123.461 11.588 124.297 11.36 125.209 11.36C126.033 11.36 126.748 11.5247 127.356 11.854C127.977 12.1707 128.471 12.5697 128.838 13.051V11.531H131.023V22H128.838V20.442C128.471 20.936 127.971 21.3477 127.337 21.677C126.704 22.0063 125.982 22.171 125.171 22.171C124.272 22.171 123.449 21.943 122.701 21.487C121.954 21.0183 121.359 20.3723 120.915 19.549C120.485 18.713 120.269 17.7693 120.269 16.718ZM128.838 16.756C128.838 16.034 128.686 15.407 128.382 14.875C128.091 14.343 127.705 13.9377 127.223 13.659C126.742 13.3803 126.223 13.241 125.665 13.241C125.108 13.241 124.589 13.3803 124.107 13.659C123.626 13.925 123.233 14.324 122.929 14.856C122.638 15.3753 122.492 15.996 122.492 16.718C122.492 17.44 122.638 18.0733 122.929 18.618C123.233 19.1627 123.626 19.5807 124.107 19.872C124.601 20.1507 125.121 20.29 125.665 20.29C126.223 20.29 126.742 20.1507 127.223 19.872C127.705 19.5933 128.091 19.188 128.382 18.656C128.686 18.1113 128.838 17.478 128.838 16.756Z" fill="#ffffff"/>
<path d="M26.25 5H8.75C7.36929 5 6.25 6.11929 6.25 7.5C6.25 8.88071 7.36929 10 8.75 10H26.25V26.25C26.25 26.9404 25.6904 27.5 25 27.5H8.75C5.98857 27.5 3.75 25.2614 3.75 22.5V7.5C3.75 4.73857 5.98857 2.5 8.75 2.5H25C25.6904 2.5 26.25 3.05965 26.25 3.75V5ZM6.25 22.5C6.25 23.8808 7.36929 25 8.75 25H23.75V12.5H8.75C7.83929 12.5 6.98544 12.2565 6.25 11.8311V22.5ZM25 8.75H8.75C8.05965 8.75 7.5 8.19035 7.5 7.5C7.5 6.80965 8.05965 6.25 8.75 6.25H25V8.75Z" fill="#ffffff"/>
</svg>
